<svg width="391" height="776" viewBox="0 0 391 776" fill="none" xmlns="http://www.w3.org/2000/svg">
<path d="M167.822 215.668C167.822 215.668 176.731 224.469 183.139 229.856C188.28 234.116 197.735 239.15 216.592 249.219C220.747 251.436 224.286 253.267 232.825 257.826C237.685 260.431 243.037 263.301 246.91 265.413C260.555 272.565 273.571 280.856 285.821 290.197C290.616 293.888 294.908 298.19 298.586 302.994C304.353 310.047 308.365 318.366 310.294 327.268C311.298 332.25 313.604 344.712 307.178 357.738C304.688 362.761 301.243 367.251 297.036 370.958C297.167 369.57 297.167 368.174 297.036 366.786C296.875 365.154 296.521 363.547 295.98 361.998C293.571 355.404 290.316 349.149 286.296 343.392C285.451 342.16 284.765 341.262 284.536 340.945C280.577 335.783 276.073 331.061 271.102 326.863C264.997 321.869 258.443 317.449 251.523 313.661C238.653 306.18 228.071 300.108 220.36 295.724C204.514 288.173 191.731 281.062 182.329 275.482C173.975 270.831 166.178 265.245 159.089 258.83C156.272 256.224 154.3 254.147 153.243 252.968C150.143 249.461 147.395 245.659 145.039 241.614C143.024 238.703 141.212 235.656 139.616 232.496C139.017 231.211 138.577 229.944 138.577 229.944C138.356 229.414 138.179 228.866 138.049 228.307C138.049 226.212 145.091 225.121 154.282 221.424L161.43 218.396L167.822 215.668Z" fill="#D8B33E"/>
<path d="M288.356 367.807C284.008 356.911 277.352 350.345 269.746 342.829C265.741 338.893 261.451 335.257 256.911 331.951C251.418 327.99 246.646 324.91 243.037 322.639C242.421 322.252 240.255 320.879 237.35 319.118C231.293 315.598 228.107 313.961 223.564 311.479C214.532 306.532 214.532 305.864 204.479 300.266C199.461 297.45 197.682 296.64 193.228 294.263C193.228 294.263 180.146 287.222 168.174 279.548C157.733 272.841 139.387 261.083 127.978 240.136C121.472 228.017 117.857 214.558 117.414 200.812C113.012 206.955 101.779 224.434 103.54 247.652C104.478 258.534 107.918 269.052 113.593 278.386C121.833 292.468 133.066 301.146 144.951 310.247C152.24 315.844 161.589 321.97 162.557 322.568C168.033 326.089 172.751 329.011 176.255 331.07C190.198 337.205 203.773 344.146 216.909 351.859C230.183 359.292 242.61 368.145 253.971 378.263C258.591 382.597 262.842 387.307 266.683 392.345C267.123 392.926 266.542 392.169 272.528 401.639C274.905 405.388 275.856 407.413 275.504 409.208C275.341 410.239 274.891 411.203 274.206 411.991C273.521 412.778 272.629 413.357 271.63 413.662C270.605 413.8 269.564 413.608 268.655 413.116C266.565 412.139 264.856 410.499 263.795 408.451C260.825 400.991 256.11 394.351 250.044 389.088C247.05 386.599 243.825 384.401 240.414 382.523C232.526 377.876 228.512 376.96 217.877 372.331C210.113 368.969 210.835 368.81 199.654 363.635C190.446 359.375 182.928 356.189 178.157 354.235C177.213 352.093 176.544 349.839 176.167 347.529C175.956 346.05 175.833 344.484 174.864 344.008C174.508 343.926 174.139 343.925 173.782 344.004C173.426 344.083 173.092 344.241 172.804 344.466C172 346.566 171.411 348.742 171.044 350.961C170.775 352.632 170.64 354.321 170.639 356.013C164.921 361.675 161.332 369.136 160.48 377.136C160.247 379.906 160.389 382.695 160.902 385.427C159.265 387.786 149.986 401.639 154.053 418.872C156.501 429.033 162.679 437.904 171.361 443.727C173.896 445.364 174.794 445.487 184.513 450.768C190.428 453.989 195.235 456.753 198.457 458.636C208.053 463.09 215.729 467.332 221.17 470.518C241.611 482.505 245.995 488.789 247.368 490.884C251.121 496.713 253.438 503.349 254.129 510.247C255.829 509.182 257.426 507.962 258.901 506.603C263.287 502.439 266.509 497.203 268.25 491.412C270.724 483.774 270.65 475.54 268.038 467.948C266.157 462.682 263.091 457.918 259.077 454.024C257.961 453.432 257.115 452.435 256.714 451.238C256.312 450.041 256.385 448.735 256.918 447.591C257.451 446.446 258.403 445.549 259.578 445.086C260.753 444.622 262.061 444.627 263.232 445.1C264.375 445.698 265.639 446.029 266.929 446.069C268.219 446.109 269.501 445.856 270.679 445.329C270.883 445.208 271.077 445.073 271.26 444.924C272.317 444.184 273.514 442.389 275.926 438.816C276.865 437.464 277.684 436.033 278.373 434.538C278.91 433.411 279.329 432.231 279.624 431.018C282.132 426.261 284.354 421.359 286.279 416.337C288.877 410.123 290.733 403.624 291.807 396.974C293.166 387.117 291.978 377.076 288.356 367.807ZM247.227 441.456C245.892 441.469 244.587 441.063 243.495 440.294C242.457 439.716 241.498 439.006 240.643 438.182C238.459 436.932 235.273 435.119 231.346 432.901L227.666 430.859C223.177 428.43 220.624 427.339 214.919 424.452C211.574 422.815 212.824 423.396 207.489 420.738C203.121 418.668 198.892 416.316 194.83 413.697L194.214 413.31C190.732 411.065 187.376 408.633 184.161 406.022C181.092 403.397 178.37 400.392 176.061 397.08C175.881 396.816 175.761 396.515 175.709 396.2C175.686 396.105 175.682 396.006 175.697 395.909C175.712 395.813 175.746 395.72 175.797 395.637C176.466 394.733 180.346 396.212 187.435 400.072C196.872 404.526 204.69 408.381 210.324 411.232C215.783 413.838 221.107 416.716 226.276 419.858C230.642 422.551 231.681 423.713 235.695 426.494C239.709 429.275 240.66 429.539 244.498 432.443C247.315 434.591 249.551 436.527 249.463 438.956C249.427 439.572 249.259 440.172 248.97 440.717C248.447 441.081 247.853 441.333 247.227 441.456Z" fill="#D8B33E"/>
<path d="M145.937 323.466L137.679 331.106C137.275 331.476 137.033 331.99 137.007 332.538C136.98 333.085 137.171 333.62 137.538 334.028L146.095 343.603C146.276 343.807 146.495 343.972 146.74 344.091C146.985 344.209 147.252 344.277 147.523 344.292C147.795 344.307 148.067 344.267 148.324 344.176C148.58 344.085 148.816 343.945 149.018 343.762L158.067 335.735C158.281 335.545 158.453 335.314 158.573 335.056C158.694 334.797 158.76 334.517 158.768 334.231C158.776 333.946 158.726 333.662 158.621 333.397C158.516 333.132 158.357 332.892 158.156 332.69L148.877 323.519C148.492 323.126 147.968 322.9 147.418 322.89C146.867 322.88 146.335 323.087 145.937 323.466Z" fill="#D8B33E"/>
<path d="M137.679 460.819L129.351 468.458C129.149 468.64 128.985 468.861 128.868 469.106C128.751 469.352 128.685 469.618 128.672 469.89C128.658 470.162 128.699 470.433 128.792 470.689C128.884 470.945 129.026 471.18 129.21 471.38L137.767 480.956C137.947 481.161 138.165 481.328 138.41 481.448C138.654 481.567 138.92 481.637 139.192 481.654C139.463 481.67 139.736 481.632 139.993 481.543C140.25 481.453 140.487 481.314 140.69 481.132L149.74 473.088C149.949 472.895 150.116 472.661 150.23 472.4C150.344 472.14 150.403 471.858 150.403 471.574C150.403 471.29 150.344 471.008 150.23 470.748C150.116 470.487 149.949 470.253 149.74 470.06L140.478 460.872C140.101 460.519 139.606 460.319 139.089 460.309C138.572 460.299 138.07 460.481 137.679 460.819Z" fill="#D8B33E"/>
<path d="M136.711 475.587L128.383 483.227C127.977 483.591 127.733 484.102 127.703 484.646C127.673 485.191 127.861 485.725 128.224 486.131L136.781 495.725C137.152 496.132 137.668 496.378 138.219 496.407C138.769 496.437 139.309 496.249 139.721 495.883L148.771 487.839C148.98 487.646 149.147 487.412 149.261 487.151C149.376 486.891 149.434 486.609 149.434 486.325C149.434 486.04 149.376 485.759 149.261 485.499C149.147 485.238 148.98 485.004 148.771 484.811L139.51 475.64C139.134 475.284 138.639 475.081 138.121 475.071C137.603 475.062 137.1 475.246 136.711 475.587Z" fill="#D8B33E"/>
<path d="M213.951 645.558L206.151 637.372C205.774 636.976 205.255 636.744 204.708 636.727C204.161 636.711 203.629 636.911 203.229 637.284L193.809 646.086C193.409 646.463 193.173 646.984 193.153 647.534C193.133 648.084 193.331 648.62 193.703 649.025L201.908 657.915C202.104 658.122 202.34 658.287 202.602 658.4C202.864 658.512 203.146 658.571 203.431 658.571C203.716 658.571 203.998 658.512 204.26 658.4C204.522 658.287 204.758 658.122 204.954 657.915L213.951 648.48C214.332 648.088 214.545 647.564 214.545 647.019C214.545 646.473 214.332 645.949 213.951 645.558Z" fill="#D8B33E"/>
<path d="M200.411 644.748L192.629 636.563C192.25 636.17 191.732 635.941 191.186 635.925C190.64 635.908 190.109 636.106 189.707 636.475L180.287 645.276C180.086 645.461 179.922 645.683 179.807 645.931C179.692 646.179 179.627 646.447 179.615 646.72C179.604 646.993 179.646 647.266 179.74 647.523C179.835 647.779 179.978 648.015 180.164 648.216L188.386 657.105C188.58 657.312 188.815 657.476 189.075 657.589C189.336 657.702 189.617 657.76 189.9 657.76C190.184 657.76 190.465 657.702 190.725 657.589C190.986 657.476 191.22 657.312 191.414 657.105L200.411 647.652C200.795 647.266 201.011 646.744 201.011 646.2C201.011 645.656 200.795 645.134 200.411 644.748Z" fill="#D8B33E"/>
<path d="M293.497 444.889C293.497 444.889 281.771 468.564 296.121 486.325L288.444 505.177C288.444 505.177 267.176 481.185 293.497 444.889Z" fill="#D8B33E"/>
<path d="M158.402 498.013C161.163 503.231 164.728 507.983 168.966 512.095C173.028 516.002 177.637 519.298 182.646 521.882C187.142 524.247 191.86 526.163 196.731 527.603C204.478 530.12 208.229 530.525 213.81 531.933C221.845 534.132 229.628 537.164 237.033 540.981C247.034 546.156 264.728 555.327 271.824 573.528C273.875 579.079 275.132 584.893 275.556 590.796C276.154 596.401 275.797 602.068 274.5 607.554C272.922 613.782 270.055 619.611 266.084 624.663C264.826 616.997 262.1 609.646 258.055 603.012C255.733 599.299 253.018 595.847 249.956 592.715C247.579 590.352 245.05 588.147 242.385 586.114C240.696 584.69 238.933 583.356 237.103 582.118C234.355 580.357 231.456 578.843 228.441 577.594C221.856 574.725 216.31 572.841 212.401 571.539C205.94 569.409 206.45 569.779 199.108 567.349C195.182 566.064 190.305 564.392 184.618 562.262C180.707 560.884 176.875 559.292 173.139 557.492C170.065 555.975 167.121 554.209 164.335 552.211C160.822 549.924 157.736 547.041 155.215 543.692C152.479 540.062 150.726 535.787 150.127 531.282C149.746 526.247 150.511 521.192 152.363 516.496C153.736 512.289 155.162 510.669 156.87 504.385L158.402 498.013Z" fill="#D8B33E"/>
<path d="M147.169 539.449C149.938 544.637 153.503 549.359 157.733 553.444C161.801 557.349 166.408 560.65 171.413 563.248C175.913 565.601 180.63 567.511 185.499 568.951C193.246 571.469 196.996 571.873 202.577 573.282C210.582 575.486 218.336 578.518 225.712 582.329C235.713 587.504 253.407 596.675 260.503 614.894C262.558 620.445 263.814 626.259 264.235 632.162C264.833 637.762 264.476 643.422 263.179 648.902C261.601 655.131 258.734 660.959 254.763 666.012C253.505 658.346 250.779 650.994 246.734 644.361C244.412 640.648 241.697 637.195 238.635 634.063C236.258 631.701 233.729 629.496 231.065 627.462C229.375 626.044 227.612 624.717 225.783 623.484C223.039 621.711 220.139 620.191 217.12 618.943C210.535 616.073 204.989 614.19 201.081 612.887C194.619 610.757 195.129 611.127 187.788 608.698C183.861 607.413 178.984 605.741 173.297 603.611C169.386 602.233 165.554 600.64 161.818 598.84C158.744 597.323 155.8 595.557 153.014 593.56C149.501 591.272 146.415 588.389 143.894 585.04C141.172 581.436 139.42 577.193 138.806 572.718C138.423 567.678 139.187 562.617 141.042 557.915C142.415 553.725 143.841 552.088 145.549 545.804L147.169 539.449Z" fill="#D8B33E"/>
<path d="M170.867 458.583C173.636 463.797 177.2 468.548 181.431 472.665C185.504 476.56 190.11 479.856 195.112 482.452C199.611 484.81 204.328 486.726 209.197 488.173C216.944 490.69 220.694 491.095 226.275 492.486C234.309 494.696 242.092 497.734 249.499 501.551C259.499 506.726 277.194 515.897 284.289 534.098C286.342 539.649 287.599 545.463 288.022 551.366C288.62 556.966 288.262 562.626 286.965 568.106C285.387 574.335 282.52 580.164 278.549 585.216C277.291 577.55 274.565 570.198 270.521 563.565C268.194 559.855 265.479 556.403 262.422 553.267C260.044 550.905 257.515 548.7 254.851 546.666C253.161 545.249 251.398 543.921 249.569 542.688C246.821 540.922 243.922 539.402 240.906 538.147C234.322 535.295 228.776 533.394 224.867 532.109C218.405 529.962 218.916 530.349 211.574 527.92C207.648 526.617 202.771 524.945 197.084 522.815C193.172 521.437 189.34 519.844 185.604 518.045C182.531 516.527 179.586 514.761 176.801 512.764C173.288 510.483 170.201 507.606 167.681 504.262C164.951 500.629 163.199 496.356 162.592 491.852C162.209 486.812 162.974 481.751 164.828 477.048C166.202 472.859 167.628 471.222 169.336 464.955L170.867 458.583Z" fill="#D8B33E"/>
<path d="M176.537 626.195C176.537 626.195 125.478 659.076 120.918 564.04L125.847 338.129L133.858 317.006C133.858 317.006 79.8061 304.843 97.2366 220.984C89.1976 232.439 83.5783 245.412 80.7216 259.111C78.5184 271.919 78.4292 285.001 80.4575 297.837C81.5192 304.521 83.6285 310.996 86.7079 317.024C88.8735 321.231 90.6518 323.466 93.2927 324.998C96.7373 326.86 100.739 327.416 104.561 326.564C103.814 327.39 102.954 328.107 102.008 328.694C101.31 329.131 100.566 329.491 99.7896 329.768L96.7965 331.528C95.2588 424.235 93.7212 516.895 92.1835 609.508C92.43 611.109 92.8174 613.415 93.4864 616.144C94.2435 619.224 102.29 650.962 121.921 657.739C138.401 663.583 162.98 651.543 176.537 626.195Z" fill="#D8B33E"/>
<path d="M155.585 170.958L159.951 203.91L132.221 214.964L112.713 188.05C115.358 181.27 117.081 174.165 117.836 166.927C119.368 152.422 111.745 136.105 111.745 136.105L115.266 134.714L130.636 173.651C129.162 174.515 128.069 175.904 127.576 177.54C127.083 179.176 127.225 180.938 127.976 182.473C128.727 184.008 130.029 185.203 131.623 185.818C133.218 186.434 134.986 186.425 136.573 185.793C138.161 185.161 139.451 183.953 140.186 182.41C140.921 180.867 141.045 179.104 140.535 177.474C140.025 175.843 138.918 174.465 137.435 173.616C135.952 172.767 134.203 172.509 132.538 172.894L117.044 134.063L120.565 132.672C120.565 132.672 127.907 152.035 137.362 159.217C143.121 163.599 149.214 167.525 155.585 170.958Z" fill="#D8B33E"/>
<path d="M167.821 215.668L138.049 228.289C137.376 226.744 136.788 225.163 136.288 223.554C135.541 221.025 134.994 218.441 134.651 215.826L159.652 205.758L167.821 215.668Z" fill="#D8B33E"/>
<path d="M117.819 114.7L114.121 120.579L116.868 126.951L110.142 125.244L104.913 129.82L104.455 122.903L98.4867 119.347L104.931 116.777L106.462 110L110.917 115.334L117.819 114.7Z" fill="#D8B33E"/>
</svg>
