<svg id="Layer_1" data-name="Layer 1" xmlns="http://www.w3.org/2000/svg" viewBox="0 0 290.8 445.39"><defs><style>.cls-1,.cls-2{fill:#fff;}.cls-2{font-size:16.15px;}.cls-2,.cls-4{font-family:Araboto-Normal;}.cls-3,.cls-4{fill:#d8b33e;}.cls-4{font-size:24.41px;}</style></defs><path class="cls-1" d="M102.57,301.63s3.35,3.33,5.76,5.33c1.93,1.6,5.48,3.5,12.59,7.28,1.56.84,2.89,1.53,6.1,3.24l5.29,2.85a102.27,102.27,0,0,1,14.61,9.32,25.67,25.67,0,0,1,4.8,4.81,21.53,21.53,0,0,1,4.4,9.12A17.51,17.51,0,0,1,155,355a16.22,16.22,0,0,1-3.81,5,8.26,8.26,0,0,0,0-1.56,8,8,0,0,0-.39-1.8,30.91,30.91,0,0,0-3.64-7c-.33-.46-.58-.79-.67-.91a33.16,33.16,0,0,0-5-5.31,47.71,47.71,0,0,0-7.35-5c-4.84-2.81-8.81-5.09-11.71-6.74-6-2.84-10.76-5.51-14.29-7.61a47,47,0,0,1-8.73-6.25c-1.06-1-1.8-1.76-2.2-2.21A27.75,27.75,0,0,1,94,311.38,30.82,30.82,0,0,1,92,308c-.22-.49-.39-1-.39-1a6.35,6.35,0,0,1-.2-.62c0-.79,2.67-1.19,6.11-2.58,0,0,0,0,2.68-1.14Z" transform="translate(-52.09 -50.97)"/><path class="cls-1" d="M147.86,358.78c-1.64-4.1-4.14-6.57-7-9.39a40.2,40.2,0,0,0-4.82-4.08c-2.06-1.49-3.85-2.66-5.21-3.51-.23-.14-1-.65-2.14-1.29-2.27-1.35-3.47-1.94-5.17-2.87-3.4-1.86-3.4-2.11-7.18-4.22-1.88-1.05-2.55-1.36-4.22-2.25,0,0-4.91-2.63-9.42-5.53-3.92-2.53-10.81-6.94-15.1-14.81a33.46,33.46,0,0,1-4-14.78,27.2,27.2,0,0,0-5.22,17.6A26.47,26.47,0,0,0,82.2,325.2c3.09,5.32,7.31,8.55,11.78,12,2.74,2.11,6.25,4.41,6.64,4.66,2.06,1.35,3.83,2.42,5.15,3.19A149,149,0,0,1,121,352.79,78.74,78.74,0,0,1,135,362.74a43.56,43.56,0,0,1,4.77,5.31c.17.22-.05-.07,2.2,3.49.89,1.41,1.25,2.17,1.12,2.84a2.1,2.1,0,0,1-1.46,1.68,1.89,1.89,0,0,1-1.12-.21,3.89,3.89,0,0,1-1.82-1.75,19.07,19.07,0,0,0-5.17-7.31,23.61,23.61,0,0,0-3.62-2.46c-3-1.75-4.47-2.09-8.46-3.83-2.92-1.27-2.64-1.31-6.85-3.27-3.46-1.6-6.29-2.8-8.08-3.53a10,10,0,0,1-.74-2.52c-.09-.55-.13-1.15-.49-1.3a.89.89,0,0,0-.78.17,11.82,11.82,0,0,0-.65,2.44,11.22,11.22,0,0,0-.16,1.9,13.16,13.16,0,0,0-3.82,8,11.82,11.82,0,0,0,.17,3.12A16.22,16.22,0,0,0,97.41,378a15.68,15.68,0,0,0,6.5,9.34c1,.62,1.29.66,4.94,2.65,2.23,1.21,4,2.25,5.25,3,3.6,1.68,6.49,3.27,8.53,4.47,7.68,4.51,9.33,6.86,9.84,7.65a16.51,16.51,0,0,1,2.54,7.31,12.08,12.08,0,0,0,1.8-1.38,12.88,12.88,0,0,0,3.5-5.7,13.9,13.9,0,0,0-.07-8.82,13.72,13.72,0,0,0-3.37-5.23,1.86,1.86,0,0,1,1.56-3.36,3.18,3.18,0,0,0,2.8.09,1.21,1.21,0,0,0,.22-.15,10.51,10.51,0,0,0,1.75-2.3,10.92,10.92,0,0,0,.92-1.6,7.46,7.46,0,0,0,.47-1.29,51.86,51.86,0,0,0,2.49-5.65,32.94,32.94,0,0,0,2.08-7.31A21.88,21.88,0,0,0,147.86,358.78ZM132.4,386.45A2.3,2.3,0,0,1,131,386a5.69,5.69,0,0,1-1.07-.79c-.82-.47-2-1.16-3.49-2l-1.39-.76c-1.68-.92-2.64-1.35-4.78-2.41l-2.79-1.39a43.83,43.83,0,0,1-4.76-2.62l-.23-.15a43,43,0,0,1-3.78-2.74,18.35,18.35,0,0,1-3-3.36.79.79,0,0,1-.12-.33.24.24,0,0,1,0-.21q.38-.51,4.37,1.66c3.55,1.68,6.48,3.12,8.63,4.2,3,1.48,4.25,2.17,6,3.24s2,1.45,3.54,2.49,1.87,1.15,3.31,2.24c1.06.8,1.9,1.53,1.87,2.45a.75.75,0,0,1-.88.89Z" transform="translate(-52.09 -50.97)"/><path class="cls-1" d="M94.35,342.12,91.22,345a.79.79,0,0,0,0,1.1l3.21,3.6a.79.79,0,0,0,1.1.07l3.4-3a.78.78,0,0,0,0-1.14l-3.48-3.44A.77.77,0,0,0,94.35,342.12Z" transform="translate(-52.09 -50.97)"/><path class="cls-1" d="M91.25,393.73l-3.13,2.87a.79.79,0,0,0-.05,1.1l3.21,3.6a.79.79,0,0,0,1.11.06l3.39-3a.78.78,0,0,0,0-1.14l-3.48-3.44A.78.78,0,0,0,91.25,393.73Z" transform="translate(-52.09 -50.97)"/><path class="cls-1" d="M90.88,399.28l-3.13,2.87a.79.79,0,0,0,0,1.1l3.21,3.6a.78.78,0,0,0,1.1.06l3.4-3a.78.78,0,0,0,0-1.14L92,399.3A.79.79,0,0,0,90.88,399.28Z" transform="translate(-52.09 -50.97)"/><path class="cls-1" d="M119.9,463.16,117,460.08a.77.77,0,0,0-1.09,0l-3.54,3.28a.77.77,0,0,0,0,1.1l3.08,3.34a.78.78,0,0,0,1.14,0l3.38-3.54A.78.78,0,0,0,119.9,463.16Z" transform="translate(-52.09 -50.97)"/><path class="cls-1" d="M114.82,462.86l-2.93-3.08a.78.78,0,0,0-1.1,0L107.25,463a.78.78,0,0,0,0,1.1l3.09,3.34a.78.78,0,0,0,1.14,0l3.38-3.55A.77.77,0,0,0,114.82,462.86Z" transform="translate(-52.09 -50.97)"/><path class="cls-1" d="M99,407.71a21.39,21.39,0,0,0,4,5.26,21.86,21.86,0,0,0,5.14,3.68,29.28,29.28,0,0,0,5.29,2.15c2.92.94,4.33,1.1,6.42,1.62a45.36,45.36,0,0,1,8.73,3.41c3.75,1.94,10.4,5.39,13.07,12.23a23.58,23.58,0,0,1,1.4,6.49,18.6,18.6,0,0,1-.39,6.29,17.34,17.34,0,0,1-3.17,6.43,22,22,0,0,0-6.06-12,29.73,29.73,0,0,0-2.84-2.49,22.71,22.71,0,0,0-2-1.49,21,21,0,0,0-3.26-1.71c-2.47-1.07-4.55-1.78-6-2.27-2.42-.8-2.23-.67-5-1.58-1.47-.48-3.3-1.11-5.44-1.91a46.1,46.1,0,0,1-4.32-1.79,23.16,23.16,0,0,1-3.32-2,13.38,13.38,0,0,1-3.43-3.19,10,10,0,0,1-1.91-4.67,12.47,12.47,0,0,1,.84-5.56c.52-1.58,1-2.19,1.69-4.55Z" transform="translate(-52.09 -50.97)"/><path class="cls-1" d="M94.81,423.28a21.39,21.39,0,0,0,4,5.26,21.86,21.86,0,0,0,5.14,3.68,28.57,28.57,0,0,0,5.29,2.15c2.92.95,4.33,1.1,6.42,1.63a44.9,44.9,0,0,1,8.73,3.4c3.75,1.94,10.4,5.39,13.07,12.23a23.65,23.65,0,0,1,1.4,6.49,19.11,19.11,0,0,1-.39,6.29,17.34,17.34,0,0,1-3.17,6.43,22.4,22.4,0,0,0-3-8.13,22.67,22.67,0,0,0-3-3.87,28.2,28.2,0,0,0-2.84-2.48,25,25,0,0,0-2-1.5,20.13,20.13,0,0,0-3.26-1.7c-2.47-1.08-4.55-1.79-6-2.28-2.42-.8-2.23-.66-5-1.57-1.47-.49-3.31-1.11-5.44-1.92a46.1,46.1,0,0,1-4.32-1.79,23.91,23.91,0,0,1-3.32-2,13.61,13.61,0,0,1-3.43-3.2,10,10,0,0,1-1.91-4.66,12.45,12.45,0,0,1,.84-5.56c.51-1.58,1-2.2,1.69-4.55Z" transform="translate(-52.09 -50.97)"/><path class="cls-1" d="M103.72,392.87a21,21,0,0,0,3.94,5.27,21.75,21.75,0,0,0,5.14,3.67,28.64,28.64,0,0,0,5.3,2.15c2.91,1,4.32,1.1,6.41,1.63a44.64,44.64,0,0,1,8.73,3.4c3.76,1.95,10.4,5.39,13.07,12.23a23.72,23.72,0,0,1,1.4,6.49,18.65,18.65,0,0,1-.39,6.3,17.34,17.34,0,0,1-3.17,6.43,22.51,22.51,0,0,0-3-8.14,23.19,23.19,0,0,0-3-3.87,28.4,28.4,0,0,0-2.85-2.48,25,25,0,0,0-2-1.5,21,21,0,0,0-3.26-1.7c-2.47-1.08-4.55-1.79-6-2.28-2.43-.8-2.24-.66-5-1.57-1.48-.49-3.31-1.11-5.45-1.91a39.65,39.65,0,0,1-4.31-1.8,23,23,0,0,1-3.33-2,13.6,13.6,0,0,1-3.43-3.2,10,10,0,0,1-1.91-4.66,12.59,12.59,0,0,1,.84-5.56c.52-1.58,1.05-2.19,1.69-4.55Z" transform="translate(-52.09 -50.97)"/><path class="cls-1" d="M105.85,455.88S86.68,468.24,85,432.52l1.85-84.89,3-7.91s-20.31-4.58-13.76-36.09A38.66,38.66,0,0,0,69.85,318a44.55,44.55,0,0,0-.1,14.56,24.11,24.11,0,0,0,2.35,7.21,6.46,6.46,0,0,0,2.47,3,6.1,6.1,0,0,0,4.23.59,4.12,4.12,0,0,1-1,.8,3.86,3.86,0,0,1-.83.4l-1.12.69Q75,397.43,74.16,449.66a24.11,24.11,0,0,0,.48,2.49c.29,1.16,3.34,13.08,10.69,15.63C91.52,469.93,100.75,465.41,105.85,455.88Z" transform="translate(-52.09 -50.97)"/><text class="cls-2" transform="translate(0 438.84)">نلعلاو ةياعدلل</text><path class="cls-1" d="M98,284.8l1.65,12.39-10.43,4.15-7.33-10.12a30.06,30.06,0,0,0,1.93-7.9c.57-5.45-2.28-11.58-2.28-11.58l1.3-.52,5.82,14.59a2.56,2.56,0,1,0,.71-.28l-5.82-14.6,1.3-.52s2.76,7.28,6.31,10A52,52,0,0,0,98,284.8Z" transform="translate(-52.09 -50.97)"/><path class="cls-1" d="M102.57,301.63l-11.19,4.74a17.45,17.45,0,0,1-.62-1.78,18.53,18.53,0,0,1-.62-2.9l9.4-3.79Z" transform="translate(-52.09 -50.97)"/><polygon class="cls-1" points="31.7 212.69 30.31 214.9 31.34 217.29 28.81 216.65 26.85 218.37 26.68 215.77 24.43 214.44 26.86 213.47 27.43 210.92 29.1 212.93 31.7 212.69"/><path class="cls-3" d="M238.12,111s5.06,5,8.7,8.06c2.92,2.42,8.29,5.28,19,11,2.36,1.26,4.37,2.3,9.22,4.89,2.76,1.48,5.8,3.11,8,4.31a155.51,155.51,0,0,1,22.1,14.08,39.39,39.39,0,0,1,7.25,7.27,32.74,32.74,0,0,1,6.65,13.79c.57,2.83,1.88,9.91-1.77,17.31a24.53,24.53,0,0,1-5.76,7.51,12.7,12.7,0,0,0,0-2.37,11.77,11.77,0,0,0-.6-2.72,46.11,46.11,0,0,0-5.5-10.57c-.48-.7-.87-1.21-1-1.39a51.45,51.45,0,0,0-7.63-8,72.66,72.66,0,0,0-11.12-7.5c-7.31-4.25-13.32-7.7-17.7-10.19-9-4.29-16.26-8.33-21.6-11.5a71.51,71.51,0,0,1-13.2-9.46c-1.6-1.48-2.72-2.66-3.32-3.33a40.55,40.55,0,0,1-4.66-6.45,43.83,43.83,0,0,1-3.08-5.18c-.34-.73-.59-1.45-.59-1.45a5.87,5.87,0,0,1-.3-.93c0-1.19,4-1.81,9.22-3.91l4.06-1.72Z" transform="translate(-52.09 -50.97)"/><path class="cls-3" d="M306.58,197.43c-2.47-6.19-6.25-9.92-10.57-14.19a65,65,0,0,0-7.29-6.18c-3.12-2.25-5.83-4-7.88-5.29-.35-.22-1.58-1-3.23-2-3.44-2-5.25-2.93-7.83-4.34-5.13-2.81-5.13-3.19-10.84-6.37-2.85-1.6-3.86-2.06-6.39-3.41,0,0-7.43-4-14.23-8.36-5.93-3.81-16.35-10.49-22.83-22.39a50.69,50.69,0,0,1-6-22.34c-2.5,3.49-8.88,13.42-7.88,26.61a40.27,40.27,0,0,0,5.71,17.46c4.68,8,11.06,12.93,17.81,18.1,4.14,3.18,9.45,6.66,10,7,3.11,2,5.79,3.66,7.78,4.83A222.9,222.9,0,0,1,266,188.37a119.23,119.23,0,0,1,21.05,15,65,65,0,0,1,7.22,8c.25.33-.08-.1,3.32,5.28,1.35,2.13,1.89,3.28,1.69,4.3a3.16,3.16,0,0,1-2.2,2.53,2.77,2.77,0,0,1-1.69-.31,5.94,5.94,0,0,1-2.76-2.65,28.54,28.54,0,0,0-7.81-11,34.87,34.87,0,0,0-5.47-3.73c-4.48-2.64-6.76-3.16-12.8-5.79-4.41-1.91-4-2-10.35-4.94-5.23-2.42-9.5-4.23-12.21-5.34a15.74,15.74,0,0,1-1.13-3.81c-.12-.84-.19-1.73-.74-2a1.39,1.39,0,0,0-1.17.26,19,19,0,0,0-1,3.69,18.16,18.16,0,0,0-.23,2.87,19.85,19.85,0,0,0-5.77,12,17.55,17.55,0,0,0,.24,4.71c-.93,1.34-6.2,9.21-3.89,19a23.68,23.68,0,0,0,9.83,14.12c1.44.93,1.95,1,7.47,4,3.36,1.83,6.09,3.4,7.92,4.47,5.45,2.53,9.81,4.94,12.9,6.75,11.61,6.81,14.1,10.38,14.88,11.57a24.91,24.91,0,0,1,3.84,11,18.48,18.48,0,0,0,2.71-2.07,19.73,19.73,0,0,0,5.31-8.63,21.05,21.05,0,0,0-.12-13.33,20.75,20.75,0,0,0-5.09-7.91,2.8,2.8,0,0,1,2.36-5.07,4.85,4.85,0,0,0,4.23.13,2.75,2.75,0,0,0,.33-.23c.6-.42,1.28-1.44,2.65-3.47a16,16,0,0,0,1.39-2.43,10.31,10.31,0,0,0,.71-2A76.82,76.82,0,0,0,305.4,225,48.62,48.62,0,0,0,308.54,214,33.12,33.12,0,0,0,306.58,197.43Zm-23.36,41.84a3.62,3.62,0,0,1-2.12-.66,7.84,7.84,0,0,1-1.62-1.2c-1.24-.71-3.05-1.74-5.28-3l-2.09-1.16c-2.55-1.38-4-2-7.24-3.64-1.9-.93-1.19-.6-4.22-2.11a63.13,63.13,0,0,1-7.19-4l-.35-.22a64.5,64.5,0,0,1-5.71-4.14,27,27,0,0,1-4.6-5.08,1.24,1.24,0,0,1-.2-.5.42.42,0,0,1,.05-.32q.57-.77,6.61,2.52c5.36,2.53,9.8,4.72,13,6.34a102.18,102.18,0,0,1,9.06,4.9c2.48,1.53,3.07,2.19,5.35,3.77s2.82,1.73,5,3.38c1.6,1.22,2.87,2.32,2.82,3.7a2.44,2.44,0,0,1-.28,1A2.61,2.61,0,0,1,283.22,239.27Z" transform="translate(-52.09 -50.97)"/><path class="cls-3" d="M225.69,172.24,221,176.58a1.18,1.18,0,0,0-.08,1.66l4.86,5.44a1.17,1.17,0,0,0,1.66.09l5.14-4.56a1.19,1.19,0,0,0,.05-1.73l-5.27-5.21A1.19,1.19,0,0,0,225.69,172.24Z" transform="translate(-52.09 -50.97)"/><path class="cls-3" d="M221,250.27l-4.73,4.34a1.17,1.17,0,0,0-.08,1.66l4.86,5.44a1.17,1.17,0,0,0,1.66.1l5.14-4.57a1.17,1.17,0,0,0,0-1.72l-5.26-5.22A1.19,1.19,0,0,0,221,250.27Z" transform="translate(-52.09 -50.97)"/><path class="cls-3" d="M220.45,258.66,215.72,263a1.17,1.17,0,0,0-.09,1.65l4.86,5.45a1.19,1.19,0,0,0,1.67.09l5.14-4.57a1.17,1.17,0,0,0,0-1.72l-5.26-5.21A1.18,1.18,0,0,0,220.45,258.66Z" transform="translate(-52.09 -50.97)"/><path class="cls-3" d="M264.32,355.22l-4.43-4.65a1.18,1.18,0,0,0-1.66-.05l-5.35,5a1.19,1.19,0,0,0-.06,1.67l4.66,5.05a1.19,1.19,0,0,0,1.73,0l5.11-5.36A1.19,1.19,0,0,0,264.32,355.22Z" transform="translate(-52.09 -50.97)"/><path class="cls-3" d="M256.63,354.76l-4.42-4.65a1.19,1.19,0,0,0-1.66-.05l-5.35,5a1.18,1.18,0,0,0-.07,1.67l4.67,5.05a1.18,1.18,0,0,0,1.72,0l5.11-5.37A1.17,1.17,0,0,0,256.63,354.76Z" transform="translate(-52.09 -50.97)"/><path class="cls-3" d="M309.5,241.22s-6.66,13.45,1.49,23.54l-4.36,10.71S294.55,261.84,309.5,241.22Z" transform="translate(-52.09 -50.97)"/><path class="cls-3" d="M232.77,271.4a32,32,0,0,0,6,8,33.09,33.09,0,0,0,7.77,5.56,43.91,43.91,0,0,0,8,3.25c4.4,1.43,6.53,1.66,9.7,2.46a67.91,67.91,0,0,1,13.19,5.14c5.68,2.94,15.73,8.15,19.76,18.49a35.69,35.69,0,0,1,2.12,9.81,28.33,28.33,0,0,1-.6,9.52,26.11,26.11,0,0,1-4.78,9.72,34.3,34.3,0,0,0-4.56-12.3,34.67,34.67,0,0,0-4.6-5.85,43.83,43.83,0,0,0-4.3-3.75,35.84,35.84,0,0,0-3-2.27,31.4,31.4,0,0,0-4.92-2.57c-3.74-1.63-6.89-2.7-9.11-3.44-3.67-1.21-3.38-1-7.55-2.38-2.23-.73-5-1.68-8.23-2.89a64.14,64.14,0,0,1-6.52-2.71,35.69,35.69,0,0,1-5-3,20.45,20.45,0,0,1-5.18-4.84,15,15,0,0,1-2.89-7.05,19,19,0,0,1,1.27-8.4c.78-2.39,1.59-3.31,2.56-6.88Z" transform="translate(-52.09 -50.97)"/><path class="cls-3" d="M226.39,294.94a32,32,0,0,0,6,7.95,33.51,33.51,0,0,0,7.77,5.57,44.54,44.54,0,0,0,8,3.24c4.4,1.43,6.53,1.66,9.7,2.46A67.91,67.91,0,0,1,271,319.3c5.68,2.94,15.73,8.15,19.76,18.5a35.55,35.55,0,0,1,2.12,9.81,28.28,28.28,0,0,1-.6,9.51,26.11,26.11,0,0,1-4.78,9.72,34.3,34.3,0,0,0-4.56-12.3,34.67,34.67,0,0,0-4.6-5.85,43.83,43.83,0,0,0-4.3-3.75,35.73,35.73,0,0,0-3-2.26,30.62,30.62,0,0,0-4.92-2.58c-3.74-1.63-6.89-2.7-9.11-3.44-3.67-1.21-3.38-1-7.55-2.38-2.23-.73-5-1.68-8.23-2.89a64.14,64.14,0,0,1-6.52-2.71,35.69,35.69,0,0,1-5-3,20.45,20.45,0,0,1-5.18-4.84,15,15,0,0,1-2.89-7,19,19,0,0,1,1.27-8.41c.78-2.38,1.59-3.31,2.56-6.88Z" transform="translate(-52.09 -50.97)"/><path class="cls-3" d="M239.85,249a32.28,32.28,0,0,0,6,8,33.71,33.71,0,0,0,7.77,5.56,44.63,44.63,0,0,0,8,3.25c4.4,1.43,6.53,1.66,9.7,2.45a68.36,68.36,0,0,1,13.19,5.15c5.68,2.94,15.73,8.15,19.76,18.49a35.62,35.62,0,0,1,2.12,9.81,28.27,28.27,0,0,1-.6,9.51,26.11,26.11,0,0,1-4.78,9.72,34.3,34.3,0,0,0-4.56-12.3,35.09,35.09,0,0,0-4.6-5.85,43.83,43.83,0,0,0-4.3-3.75,35.73,35.73,0,0,0-3-2.26,31.44,31.44,0,0,0-4.92-2.58c-3.74-1.62-6.89-2.7-9.11-3.43-3.67-1.22-3.38-1-7.55-2.38-2.23-.74-5-1.69-8.23-2.9a64.14,64.14,0,0,1-6.52-2.71,35.69,35.69,0,0,1-5-3,20.39,20.39,0,0,1-5.18-4.83,15.09,15.09,0,0,1-2.89-7.05,19,19,0,0,1,1.27-8.41c.78-2.38,1.59-3.31,2.56-6.87Z" transform="translate(-52.09 -50.97)"/><path class="cls-3" d="M243.07,344.22s-29,18.68-31.59-35.31l2.8-128.34,4.55-12s-30.7-6.91-20.8-54.55a58.5,58.5,0,0,0-9.38,21.66,67.58,67.58,0,0,0-.15,22,36.57,36.57,0,0,0,3.55,10.9c1.23,2.39,2.24,3.66,3.74,4.53a9.23,9.23,0,0,0,6.4.89,6.77,6.77,0,0,1-1.45,1.21,6.48,6.48,0,0,1-1.26.61l-1.7,1q-1.31,79-2.62,157.92c.14.91.36,2.22.74,3.77.43,1.75,5,19.78,16.15,23.63C221.41,365.46,235.37,358.62,243.07,344.22Z" transform="translate(-52.09 -50.97)"/><text class="cls-4" transform="translate(109.72 344.54)">نلعلاو ةياعدلل</text><path class="cls-3" d="M231.17,85.6l2.48,18.72L217.9,110.6,206.82,95.31a46.22,46.22,0,0,0,2.91-12c.87-8.24-3.46-17.51-3.46-17.51l2-.79L217,87.13a3.85,3.85,0,1,0,1.08-.43l-8.8-22.06,2-.79s4.17,11,9.54,15.08A78.91,78.91,0,0,0,231.17,85.6Z" transform="translate(-52.09 -50.97)"/><path class="cls-3" d="M238.12,111l-16.91,7.17a26.13,26.13,0,0,1-1-2.69,28.71,28.71,0,0,1-.93-4.39l14.2-5.72Z" transform="translate(-52.09 -50.97)"/><polygon class="cls-3" points="157.63 2.67 155.53 6.01 157.09 9.63 153.27 8.66 150.3 11.26 150.04 7.33 146.65 5.31 150.31 3.85 151.18 0 153.71 3.03 157.63 2.67"/><path class="cls-1" d="M151.59,387s-4.4,8.9,1,15.57l-2.88,7.09S141.71,400.67,151.59,387Z" transform="translate(-52.09 -50.97)"/></svg>